<svg xmlns="http://www.w3.org/2000/svg" width="24" height="24" fill="none" viewBox="0 0 24 24"><g id="geolocation_2"><g id="Vector"><path stroke="black" stroke-width="1.2" d="M22 12C22 17.5228 17.5228 22 12 22C6.47715 22 2 17.5228 2 12C2 6.47715 6.47715 2 12 2C17.5228 2 22 6.47715 22 12Z" vector-effect="non-scaling-stroke"/><path stroke="black" stroke-width="1.2" d="M15.7859 7.68066C16.1263 7.51785 16.4822 7.87368 16.3193 8.21409L14.2453 12.5508C13.8905 13.2926 13.2926 13.8905 12.5508 14.2453L8.21409 16.3193C7.87368 16.4822 7.51785 16.1263 7.68066 15.7859L9.75474 11.4492C10.1095 10.7074 10.7074 10.1095 11.4492 9.75474L15.7859 7.68066Z" vector-effect="non-scaling-stroke"/></g></g></svg>