<svg xmlns="http://www.w3.org/2000/svg" width="24" height="24" fill="none" viewBox="0 0 24 24"><g id="anthropogenic_impact"><path id="Vector" stroke="black" stroke-linecap="round" stroke-linejoin="round" stroke-width="1.2" d="M11.8181 9.08338L9 11.9248M11.3964 17.338H14.7829C15.3636 17.338 15.8343 16.8414 15.8343 16.2288M4 20H13.7079C14.5932 20 15.4512 19.6765 16.136 19.0845L19.659 16.0389C20.332 15.4572 19.942 14.3062 19.0721 14.3062C18.89 14.3062 18.7119 14.3629 18.5601 14.4691L17.3136 15.3414L15.8343 16.2288M4 16.8942L4.42787 16.798C4.79729 16.7149 5.15028 16.5649 5.47118 16.3547L7.17062 15.2415C8.56191 14.3301 9.63155 14.1873 11.1407 14.8583L11.4814 15.0098C11.6444 15.0823 11.8196 15.1196 11.9965 15.1196H14.7829C15.3636 15.1196 15.8343 15.6162 15.8343 16.2288M10.3113 5.73158C12.5666 3.45769 16.7834 4.07702 16.7834 4.07702C16.7834 4.07702 17.3977 8.32875 15.1424 10.6026C13.8253 11.9307 11.676 11.9169 10.342 10.5718C9.0079 9.22666 8.99419 7.05963 10.3113 5.73158Z" vector-effect="non-scaling-stroke"/></g></svg>